<svg xmlns="http://www.w3.org/2000/svg" width="28" height="28" fill="none" viewBox="0 0 28 28">
  <circle cx="14" cy="14" r="12.75" fill="#007AFF" stroke="#fff" stroke-width="1.5"/>
  <path fill="#fff" fill-rule="evenodd" d="M11.293 9.96h5.27c.581 0 1.053.472 1.053 1.055v8.43c0 .583-.472 1.055-1.054 1.055h-5.27a1.054 1.054 0 0 1-1.053-1.054v-8.431c0-.583.471-1.054 1.054-1.054Zm2.635 7.682a.75.75 0 1 0 0 1.5h.008a.75.75 0 0 0 0-1.5h-.008Zm6.619-7.348a3.527 3.527 0 0 0-1.028-2.11 3.604 3.604 0 0 0-2.14-1.017.45.45 0 0 1 .098-.895 4.503 4.503 0 0 1 2.674 1.271 4.427 4.427 0 0 1 1.29 2.65.45.45 0 1 1-.894.101Zm-1.789.04a1.762 1.762 0 0 0-.49-.91 1.8 1.8 0 0 0-.925-.487.45.45 0 0 1 .17-.884 2.7 2.7 0 0 1 1.388.73c.38.376.637.855.74 1.378a.45.45 0 0 1-.883.174Z" clip-rule="evenodd"/>
</svg>
