<svg xmlns="http://www.w3.org/2000/svg" width="24" height="24" fill="none" viewBox="0 0 24 24">
  <path fill="#000" d="M6 6a3 3 0 0 1 3-3h6a3 3 0 0 1 3 3v12a3 3 0 0 1-3 3H9a3 3 0 0 1-3-3V6Zm7.5 10.5a1.5 1.5 0 1 0-3 0 1.5 1.5 0 0 0 3 0ZM2.71 7.1a.75.75 0 1 0-1.325-.7A11.95 11.95 0 0 0 0 12c0 2.021.5 3.928 1.385 5.6a.75.75 0 0 0 1.326-.7A10.451 10.451 0 0 1 1.5 12c0-1.771.438-3.438 1.21-4.9Zm19.906-.7a.75.75 0 0 0-1.327.7A10.452 10.452 0 0 1 22.5 12c0 1.771-.438 3.438-1.21 4.9a.75.75 0 1 0 1.326.7A11.95 11.95 0 0 0 24 12c0-2.021-.5-3.928-1.384-5.6ZM5.011 9.273a.75.75 0 0 0-1.397-.546A8.98 8.98 0 0 0 3 12a8.97 8.97 0 0 0 .614 3.273.75.75 0 1 0 1.397-.546A7.48 7.48 0 0 1 4.5 12c0-.963.181-1.883.511-2.727Zm15.375-.546a.75.75 0 1 0-1.397.546A7.48 7.48 0 0 1 19.5 12a7.48 7.48 0 0 1-.511 2.727.75.75 0 1 0 1.397.546A8.98 8.98 0 0 0 21 12a8.98 8.98 0 0 0-.614-3.273Z"/>
</svg>
